<?xml version="1.0" standalone="no"?>
<svg xmlns:xlink="http://www.w3.org/1999/xlink" id="wave" style="transform:rotate(180deg); transition: 0.3s" viewBox="0 0 1440 490" version="1.1" xmlns="http://www.w3.org/2000/svg"><defs><linearGradient id="sw-gradient-0" x1="0" x2="0" y1="1" y2="0"><stop stop-color="rgba(243, 106, 62, 1)" offset="0%"/><stop stop-color="rgba(255, 179, 11, 1)" offset="100%"/></linearGradient></defs><path style="transform:translate(0, 0px); opacity:1" fill="url(#sw-gradient-0)" d="M0,294L30,310.3C60,327,120,359,180,343C240,327,300,261,360,228.7C420,196,480,196,540,220.5C600,245,660,294,720,285.8C780,278,840,212,900,196C960,180,1020,212,1080,204.2C1140,196,1200,147,1260,122.5C1320,98,1380,98,1440,114.3C1500,131,1560,163,1620,196C1680,229,1740,261,1800,294C1860,327,1920,359,1980,318.5C2040,278,2100,163,2160,98C2220,33,2280,16,2340,8.2C2400,0,2460,0,2520,73.5C2580,147,2640,294,2700,310.3C2760,327,2820,212,2880,155.2C2940,98,3000,98,3060,98C3120,98,3180,98,3240,81.7C3300,65,3360,33,3420,32.7C3480,33,3540,65,3600,138.8C3660,212,3720,327,3780,375.7C3840,425,3900,408,3960,367.5C4020,327,4080,261,4140,220.5C4200,180,4260,163,4290,155.2L4320,147L4320,490L4290,490C4260,490,4200,490,4140,490C4080,490,4020,490,3960,490C3900,490,3840,490,3780,490C3720,490,3660,490,3600,490C3540,490,3480,490,3420,490C3360,490,3300,490,3240,490C3180,490,3120,490,3060,490C3000,490,2940,490,2880,490C2820,490,2760,490,2700,490C2640,490,2580,490,2520,490C2460,490,2400,490,2340,490C2280,490,2220,490,2160,490C2100,490,2040,490,1980,490C1920,490,1860,490,1800,490C1740,490,1680,490,1620,490C1560,490,1500,490,1440,490C1380,490,1320,490,1260,490C1200,490,1140,490,1080,490C1020,490,960,490,900,490C840,490,780,490,720,490C660,490,600,490,540,490C480,490,420,490,360,490C300,490,240,490,180,490C120,490,60,490,30,490L0,490Z"/><defs><linearGradient id="sw-gradient-1" x1="0" x2="0" y1="1" y2="0"><stop stop-color="rgba(243, 106, 62, 1)" offset="0%"/><stop stop-color="rgba(255, 179, 11, 1)" offset="100%"/></linearGradient></defs><path style="transform:translate(0, 50px); opacity:0.9" fill="url(#sw-gradient-1)" d="M0,49L30,106.2C60,163,120,278,180,318.5C240,359,300,327,360,334.8C420,343,480,392,540,400.2C600,408,660,376,720,302.2C780,229,840,114,900,81.7C960,49,1020,98,1080,130.7C1140,163,1200,180,1260,163.3C1320,147,1380,98,1440,65.3C1500,33,1560,16,1620,65.3C1680,114,1740,229,1800,253.2C1860,278,1920,212,1980,163.3C2040,114,2100,82,2160,57.2C2220,33,2280,16,2340,32.7C2400,49,2460,98,2520,147C2580,196,2640,245,2700,285.8C2760,327,2820,359,2880,334.8C2940,310,3000,229,3060,236.8C3120,245,3180,343,3240,392C3300,441,3360,441,3420,432.8C3480,425,3540,408,3600,334.8C3660,261,3720,131,3780,138.8C3840,147,3900,294,3960,359.3C4020,425,4080,408,4140,367.5C4200,327,4260,261,4290,228.7L4320,196L4320,490L4290,490C4260,490,4200,490,4140,490C4080,490,4020,490,3960,490C3900,490,3840,490,3780,490C3720,490,3660,490,3600,490C3540,490,3480,490,3420,490C3360,490,3300,490,3240,490C3180,490,3120,490,3060,490C3000,490,2940,490,2880,490C2820,490,2760,490,2700,490C2640,490,2580,490,2520,490C2460,490,2400,490,2340,490C2280,490,2220,490,2160,490C2100,490,2040,490,1980,490C1920,490,1860,490,1800,490C1740,490,1680,490,1620,490C1560,490,1500,490,1440,490C1380,490,1320,490,1260,490C1200,490,1140,490,1080,490C1020,490,960,490,900,490C840,490,780,490,720,490C660,490,600,490,540,490C480,490,420,490,360,490C300,490,240,490,180,490C120,490,60,490,30,490L0,490Z"/><defs><linearGradient id="sw-gradient-2" x1="0" x2="0" y1="1" y2="0"><stop stop-color="rgba(243, 106, 62, 1)" offset="0%"/><stop stop-color="rgba(255, 179, 11, 1)" offset="100%"/></linearGradient></defs><path style="transform:translate(0, 100px); opacity:0.8" fill="url(#sw-gradient-2)" d="M0,343L30,351.2C60,359,120,376,180,326.7C240,278,300,163,360,106.2C420,49,480,49,540,114.3C600,180,660,310,720,375.7C780,441,840,441,900,416.5C960,392,1020,343,1080,294C1140,245,1200,196,1260,155.2C1320,114,1380,82,1440,98C1500,114,1560,180,1620,220.5C1680,261,1740,278,1800,261.3C1860,245,1920,196,1980,212.3C2040,229,2100,310,2160,334.8C2220,359,2280,327,2340,294C2400,261,2460,229,2520,204.2C2580,180,2640,163,2700,138.8C2760,114,2820,82,2880,98C2940,114,3000,180,3060,212.3C3120,245,3180,245,3240,228.7C3300,212,3360,180,3420,204.2C3480,229,3540,310,3600,294C3660,278,3720,163,3780,114.3C3840,65,3900,82,3960,147C4020,212,4080,327,4140,367.5C4200,408,4260,376,4290,359.3L4320,343L4320,490L4290,490C4260,490,4200,490,4140,490C4080,490,4020,490,3960,490C3900,490,3840,490,3780,490C3720,490,3660,490,3600,490C3540,490,3480,490,3420,490C3360,490,3300,490,3240,490C3180,490,3120,490,3060,490C3000,490,2940,490,2880,490C2820,490,2760,490,2700,490C2640,490,2580,490,2520,490C2460,490,2400,490,2340,490C2280,490,2220,490,2160,490C2100,490,2040,490,1980,490C1920,490,1860,490,1800,490C1740,490,1680,490,1620,490C1560,490,1500,490,1440,490C1380,490,1320,490,1260,490C1200,490,1140,490,1080,490C1020,490,960,490,900,490C840,490,780,490,720,490C660,490,600,490,540,490C480,490,420,490,360,490C300,490,240,490,180,490C120,490,60,490,30,490L0,490Z"/><defs><linearGradient id="sw-gradient-3" x1="0" x2="0" y1="1" y2="0"><stop stop-color="rgba(243, 106, 62, 1)" offset="0%"/><stop stop-color="rgba(255, 179, 11, 1)" offset="100%"/></linearGradient></defs><path style="transform:translate(0, 150px); opacity:0.7" fill="url(#sw-gradient-3)" d="M0,392L30,334.8C60,278,120,163,180,138.8C240,114,300,180,360,171.5C420,163,480,82,540,81.7C600,82,660,163,720,204.2C780,245,840,245,900,236.8C960,229,1020,212,1080,236.8C1140,261,1200,327,1260,294C1320,261,1380,131,1440,122.5C1500,114,1560,229,1620,253.2C1680,278,1740,212,1800,204.2C1860,196,1920,245,1980,245C2040,245,2100,196,2160,204.2C2220,212,2280,278,2340,253.2C2400,229,2460,114,2520,130.7C2580,147,2640,294,2700,302.2C2760,310,2820,180,2880,138.8C2940,98,3000,147,3060,147C3120,147,3180,98,3240,122.5C3300,147,3360,245,3420,302.2C3480,359,3540,376,3600,326.7C3660,278,3720,163,3780,114.3C3840,65,3900,82,3960,114.3C4020,147,4080,196,4140,212.3C4200,229,4260,212,4290,204.2L4320,196L4320,490L4290,490C4260,490,4200,490,4140,490C4080,490,4020,490,3960,490C3900,490,3840,490,3780,490C3720,490,3660,490,3600,490C3540,490,3480,490,3420,490C3360,490,3300,490,3240,490C3180,490,3120,490,3060,490C3000,490,2940,490,2880,490C2820,490,2760,490,2700,490C2640,490,2580,490,2520,490C2460,490,2400,490,2340,490C2280,490,2220,490,2160,490C2100,490,2040,490,1980,490C1920,490,1860,490,1800,490C1740,490,1680,490,1620,490C1560,490,1500,490,1440,490C1380,490,1320,490,1260,490C1200,490,1140,490,1080,490C1020,490,960,490,900,490C840,490,780,490,720,490C660,490,600,490,540,490C480,490,420,490,360,490C300,490,240,490,180,490C120,490,60,490,30,490L0,490Z"/></svg>